<?xml version="1.0" standalone="no"?>
<!DOCTYPE svg PUBLIC "-//W3C//DTD SVG 20010904//EN"
 "http://www.w3.org/TR/2001/REC-SVG-20010904/DTD/svg10.dtd">
<svg version="1.0" xmlns="http://www.w3.org/2000/svg"
 width="512.000000pt" height="512.000000pt" viewBox="0 0 512.000000 512.000000"
 preserveAspectRatio="xMidYMid meet">
<metadata>
Created by potrace 1.14, written by Peter Selinger 2001-2017
</metadata>
<g transform="translate(0.000000,512.000000) scale(0.100000,-0.100000)"
fill="#000000" stroke="none">
<path d="M2920 3882 c-30 -4 -174 -29 -210 -36 -162 -35 -394 -133 -572 -243
-77 -48 -245 -166 -258 -182 -3 -4 -21 -19 -40 -35 -215 -174 -450 -474 -579
-738 -54 -112 -131 -317 -145 -388 -3 -14 -9 -50 -15 -80 -6 -30 -13 -68 -16
-85 -11 -54 -14 -289 -4 -345 19 -113 31 -167 54 -230 27 -76 56 -140 64 -140
3 0 24 37 45 83 22 45 47 93 56 107 9 14 32 48 51 77 58 85 99 134 199 234
238 238 487 385 953 564 382 146 626 295 853 520 184 184 323 389 400 591 l22
60 -45 40 c-180 154 -419 234 -683 231 -58 -1 -116 -3 -130 -5z"/>
<path d="M3863 3351 c-24 -47 -48 -95 -55 -106 -93 -146 -130 -199 -192 -273
-195 -232 -447 -425 -744 -570 -123 -61 -157 -75 -397 -167 -296 -114 -516
-239 -702 -397 -198 -168 -353 -386 -423 -595 l-17 -52 50 -43 c126 -108 292
-188 442 -213 22 -3 63 -10 90 -15 55 -9 274 -6 345 5 70 11 214 43 246 56 16
6 38 13 49 15 60 12 285 115 395 182 189 114 305 205 470 371 275 276 458 574
563 916 16 52 19 62 36 155 6 30 13 69 17 85 13 65 12 301 -2 380 -23 135 -92
331 -121 348 -5 2 -27 -35 -50 -82z"/>
</g>
</svg>
